<svg width="99" height="117" viewBox="0 0 99 117" fill="none" xmlns="http://www.w3.org/2000/svg">
<path d="M95.7467 88.8678H79.5405L88.0697 109.495C88.6638 110.925 87.9849 112.529 86.6269 113.135L79.1161 116.385C77.716 116.992 76.1459 116.299 75.5518 114.912L67.447 95.3247L54.2076 108.845C52.4433 110.647 49.5822 109.258 49.5822 106.895V41.7215C49.5822 39.234 52.6254 38.0213 54.2075 39.7715L97.6562 84.1443C99.4088 85.84 98.1156 88.8678 95.7467 88.8678Z" fill="#CB4D87"/>
<g clip-path="url(#clip0_63_10)">
<path d="M22.2304 54.2244C21.69 54.2271 21.1616 54.0664 20.7159 53.7636C20.2701 53.4608 19.9282 53.0304 19.7359 52.5299L15.4779 41.5579C15.3916 41.3368 15.2597 41.136 15.0906 40.9684C14.9214 40.8008 14.7188 40.67 14.4957 40.5846L3.4199 36.362C2.91537 36.1702 2.48142 35.8312 2.17532 35.3899C1.86922 34.9486 1.70535 34.4257 1.70535 33.8902C1.70535 33.3547 1.86922 32.8317 2.17532 32.3904C2.48142 31.9491 2.91537 31.6101 3.4199 31.4183L14.4925 27.1989C14.7156 27.1135 14.9182 26.9827 15.0874 26.8151C15.2565 26.6475 15.3884 26.4467 15.4747 26.2256L19.7359 15.2504C19.9296 14.7505 20.2716 14.3205 20.717 14.0171C21.1623 13.7138 21.69 13.5514 22.2304 13.5514C22.7709 13.5514 23.2986 13.7138 23.7439 14.0171C24.1893 14.3205 24.5313 14.7505 24.725 15.2504L28.983 26.2224C29.0692 26.4435 29.2012 26.6443 29.3703 26.8119C29.5395 26.9795 29.7421 27.1103 29.9652 27.1957L40.9737 31.3929C41.4987 31.5857 41.9511 31.9342 42.2691 32.3909C42.5871 32.8476 42.7554 33.3904 42.7511 33.9452C42.7429 34.4714 42.5755 34.983 42.2707 35.4139C41.9658 35.8448 41.5374 36.1751 41.041 36.362L29.9684 40.5814C29.7453 40.6669 29.5427 40.7976 29.3735 40.9652C29.2044 41.1328 29.0725 41.3336 28.9862 41.5547L24.725 52.5299C24.5327 53.0304 24.1908 53.4608 23.745 53.7636C23.2993 54.0664 22.7709 54.2271 22.2304 54.2244ZM9.40507 18.6395C9.08824 18.6394 8.77884 18.5443 8.51765 18.3666C8.25646 18.1889 8.05573 17.9369 7.94191 17.6439L6.13995 13.0009C6.10089 12.8994 6.04061 12.8072 5.96307 12.7303C5.88553 12.6535 5.79246 12.5938 5.68999 12.5551L1.00445 10.7695C0.708805 10.6566 0.454583 10.4577 0.275279 10.1989C0.0959743 9.94008 0 9.63351 0 9.31958C0 9.00565 0.0959743 8.69908 0.275279 8.44026C0.454583 8.18144 0.708805 7.98252 1.00445 7.8697L5.68999 6.0841C5.79236 6.04523 5.88533 5.98543 5.96285 5.90862C6.04038 5.8318 6.10071 5.73967 6.13995 5.63823L7.92588 1.03654C8.0266 0.765634 8.19992 0.527044 8.42721 0.346416C8.65449 0.165788 8.92716 0.049952 9.2159 0.0113569C9.56256 -0.0304022 9.91336 0.0437105 10.2127 0.221943C10.512 0.400175 10.7427 0.672326 10.8682 0.995239L12.6702 5.63823C12.7094 5.73967 12.7698 5.8318 12.8473 5.90862C12.9248 5.98543 13.0178 6.04523 13.1202 6.0841L17.8057 7.8697C18.1013 7.98252 18.3556 8.18144 18.5349 8.44026C18.7142 8.69908 18.8101 9.00565 18.8101 9.31958C18.8101 9.63351 18.7142 9.94008 18.5349 10.1989C18.3556 10.4577 18.1013 10.6566 17.8057 10.7695L13.1202 12.5551C13.0177 12.5938 12.9246 12.6535 12.8471 12.7303C12.7695 12.8072 12.7093 12.8994 12.6702 13.0009L10.8682 17.6439C10.7544 17.9369 10.5537 18.1889 10.2925 18.3666C10.0313 18.5443 9.72191 18.6394 9.40507 18.6395ZM42.7511 27.1121C42.4054 27.112 42.0679 27.0081 41.7831 26.8141C41.4982 26.6201 41.2794 26.3452 41.1554 26.0255L38.7143 19.7377C38.6713 19.6269 38.6054 19.5263 38.5207 19.4424C38.436 19.3584 38.3344 19.2931 38.2226 19.2505L31.8773 16.8316C31.5549 16.7085 31.2777 16.4916 31.0822 16.2093C30.8867 15.9271 30.7821 15.5927 30.7821 15.2504C30.7821 14.9081 30.8867 14.5738 31.0822 14.2915C31.2777 14.0093 31.5549 13.7923 31.8773 13.6692L38.2226 11.2503C38.3344 11.2077 38.436 11.1424 38.5207 11.0584C38.6054 10.9745 38.6713 10.8739 38.7143 10.7631L41.1372 4.51985C41.2478 4.22461 41.4371 3.9646 41.685 3.76748C41.9328 3.57037 42.23 3.44351 42.5448 3.4004C42.9231 3.35503 43.3058 3.43615 43.6323 3.6309C43.9587 3.82564 44.2102 4.12286 44.3467 4.47536L46.7878 10.7631C46.8308 10.8739 46.8967 10.9745 46.9814 11.0584C47.0661 11.1424 47.1677 11.2077 47.2795 11.2503L53.6248 13.6692C53.9472 13.7923 54.2244 14.0093 54.4199 14.2915C54.6154 14.5738 54.72 14.9081 54.72 15.2504C54.72 15.5927 54.6154 15.9271 54.4199 16.2093C54.2244 16.4916 53.9472 16.7085 53.6248 16.8316L47.2795 19.2505C47.1677 19.2931 47.0661 19.3584 46.9814 19.4424C46.8967 19.5263 46.8308 19.6269 46.7878 19.7377L44.3467 26.0255C44.2227 26.3452 44.0039 26.6201 43.719 26.8141C43.4342 27.0081 43.0967 27.112 42.7511 27.1121Z" fill="#EDD75E"/>
</g>
<defs>
<clipPath id="clip0_63_10">
<rect width="54.7216" height="54.2247" fill="white"/>
</clipPath>
</defs>
</svg>
